<?xml version="1.0" encoding="UTF-8"?>
<svg xmlns="http://www.w3.org/2000/svg" viewBox="131 28 1119 304" role="img" aria-label="PithTrain">
  <title>PithTrain</title>
  <defs>
    <linearGradient id="auroraD" x1="1" y1="0" x2="0" y2="1">
      <stop offset="0%" stop-color="#14B8A6"/>
      <stop offset="48%" stop-color="#06B6D4"/>
      <stop offset="100%" stop-color="#60A5FA"/>
    </linearGradient>
    <linearGradient id="trainBody" x1="0" y1="0" x2="0" y2="1">
      <stop offset="0%" stop-color="#FFFFFF"/>
      <stop offset="58%" stop-color="#F1F5F9"/>
      <stop offset="100%" stop-color="#CBD5E1"/>
    </linearGradient>
  </defs>
  <g transform="translate(290, 180)">
    <path d="M -62 -107.4 A 124 124 0 1 1 -119.2 -34.2" fill="none" stroke="url(#auroraD)" stroke-width="28" stroke-linecap="round" opacity="0.92"/>
    <polygon points="-106.7,-77.8 -98.9,-19.3 -144.3,-32.3" fill="#60A5FA"/>
    <g transform="translate(30,0) scale(1.12)">
      <path d="M -89.2 -40 Q -100 -40 -100 -30 L -100 30 Q -100 40 -89.2 40 L 94.4 40 C 112.4 40 123.2 33.3 127.7 20 C 130.4 10.8 130.4 -5.8 126.8 -16.7 C 110.6 -33.3 54.8 -40 -6.4 -40 Z" fill="url(#trainBody)" stroke="#0f172a" stroke-width="5" stroke-linejoin="round"/>
      <path d="M -85.6 -30 C -35.2 -35 40.4 -35.8 107 -23.3" fill="none" stroke="#94a3b8" stroke-width="3.5" stroke-linecap="round" opacity="0.5"/>
      <path d="M 47.6 -30 C 78.2 -34.2 108.8 -31.7 125 -19.2 C 126.8 -10.8 114.2 -6.7 90.8 -8.3 C 67.4 -10 56.6 -18.3 47.6 -30 Z" fill="#1e293b"/>
      <path d="M 56.6 -19.2 C 83.6 -23.3 112.4 -20.8 123.2 -14.2" fill="none" stroke="#f8fafc" stroke-width="2.4" stroke-linecap="round"/>
      <rect x="-85.6" y="-8" width="21.6" height="12" rx="2.5" fill="#1e293b"/>
      <rect x="-49.6" y="-8" width="21.6" height="12" rx="2.5" fill="#1e293b"/>
      <rect x="-13.6" y="-8" width="21.6" height="12" rx="2.5" fill="#1e293b"/>
      <rect x="22.4" y="-8" width="21.6" height="12" rx="2.5" fill="#1e293b"/>
      <circle cx="116.9" cy="14" r="4.5" fill="#f8fafc"/>
      <line x1="-89.2" y1="32" x2="76.4" y2="32" stroke="#0f172a" stroke-width="4.5" stroke-linecap="round"/>
    </g>
  </g>
  <g fill="#0f172a" transform="translate(500,230) scale(0.087891,-0.087891)">
    <path transform="translate(0.0,0)" d="M116.47284179925919 0V1490H702.5571301244199Q870.836805421859 1490 992.4842193629593 1429.301232298836Q1114.1316333040595 1368.6024645976722 1179.6558251976967 1258.1405310034752Q1245.1800170913339 1147.6785974092782 1245.1800170913339 998.0724389627576Q1245.1800170913339 848.766260985285 1178.7602435331792 738.2921044901013Q1112.3404699750245 627.8179479949176 989.6085919234902 567.1291668657213Q866.8767138719559 506.44038573652506 698.1170434579253 506.44038573652506H293.66337525472045V762.0720324702561H675.0532983466983Q759.4254113845527 762.0720324702561 818.6704663150012 791.2134759519249Q877.9155212454498 820.3549194335938 909.4680175818503 873.4955194089562Q941.0205139182508 926.6361193843186 941.0205139182508 998.0724389627576Q941.0205139182508 1070.526527095586 909.4680175818503 1122.9371160846204Q877.9155212454498 1175.3477050736547 818.619351202622 1204.2580352742225Q759.3231811597943 1233.1683654747903 674.8488378971815 1233.1683654747903H423.4899731501937V0Z"/>
    <path transform="translate(1266.9,0)" d="M109.59222656488419 0V1069.7781982421875H405.0494726598263V0ZM256.88310180976987 1205.2698376365006Q185.17740722745657 1205.2698376365006 137.28127502463758 1250.2918871045708Q89.38514282181859 1295.3139365726413 89.38514282181859 1361.9566273624243Q89.38514282181859 1428.8785253837705 137.28127502463758 1473.4592120293528Q185.17740722745657 1518.039898674935 256.52064542324075 1518.039898674935Q328.5367471804576 1518.039898674935 376.5100191014686 1473.5170668179967Q424.48329102247953 1428.9942349610585 424.48329102247953 1361.6077499770079Q424.48329102247953 1295.0734191797674 376.4606368160023 1250.171628408134Q328.4379826095251 1205.2698376365006 256.88310180976987 1205.2698376365006Z"/>
    <path transform="translate(1747.7,0)" d="M704.5795739851892 1069.7781982421875V839.0838134735823H18.211041260510683V1069.7781982421875ZM194.44670044258237 1352.88916015625H489.90394653752446V326.43300415948033Q489.90394653752446 273.0014587454498 512.0752520803362 251.25900268927217Q534.246557623148 229.51654663309455 592.6601770110428 229.51654663309455Q616.1267187595367 229.51654663309455 649.886397715658 230.46546203829348Q683.6460766717792 231.4143774434924 701.8062146119773 232.3032934591174L711.3486743271351 2.4133630357682705Q679.5642871260643 -0.888916015625 631.2749414220452 -2.180059203878045Q582.9855957180262 -3.47120239213109 535.0664294548333 -3.47120239213109Q361.66791504621506 -3.47120239213109 278.0573077443987 67.66634704731405Q194.44670044258237 138.8038964867592 194.44670044258237 284.7230273485184Z"/>
    <path transform="translate(2467.6,0)" d="M405.0494726598263 600.1571630835533V0H109.59222656488419V1490H403.84948486834764V793.9455078095198H355.8563830591738Q404.8142321817577 934.1523937992752 496.88869080133736 1012.1385675054044Q588.963149420917 1090.1247412115335 732.3468481525779 1090.1247412115335Q846.0199865810573 1090.1247412115335 929.9245983958244 1041.044833375141Q1013.8292102105916 991.9649255387485 1060.0283239781857 898.6738128680736Q1106.2274377457798 805.3827001973987 1106.2274377457798 672.4401562511921V0H810.6679614260793V618.7351721189916Q810.6679614260793 724.4985790997744 759.3329016119242 780.5869616679847Q707.9978417977691 836.6753442361951 614.5212536640465 836.6753442361951Q553.1739062517881 836.6753442361951 505.85102112032473 811.026183469221Q458.5281359888613 785.3770227022469 431.7888043243438 732.9853350799531Q405.0494726598263 680.5936474576592 405.0494726598263 600.1571630835533Z"/>
    <path transform="translate(3649.5,0)" d="M51.42725098133087 1228.6263452097774V1490H1264.131184078753V1228.6263452097774H811.7478051781654V0H504.73067382723093V1228.6263452097774Z"/>
    <path transform="translate(4931.3,0)" d="M109.59222656488419 0V1069.7781982421875H395.09402099996805V886.4854150414467H400.0318945348263Q429.3563537634909 983.73154174909 493.62318970263004 1031.2750372309238Q557.8900256417692 1078.8185327127576 659.9920605570078 1078.8185327127576Q685.5652417093515 1078.8185327127576 708.3429925646633 1077.520723875612Q731.120743419975 1076.2229150384665 749.2938171513379 1074.4451110847294V819.6839013695717Q732.4785302877426 822.2817236334085 695.521054090932 824.8407019041479Q658.5635778941214 827.3996801748872 621.9658215455711 827.3996801748872Q559.9168408289552 827.3996801748872 510.5766461249441 799.3752038553357Q461.236451420933 771.3507275357842 433.14296204037964 717.6472564656287Q405.0494726598263 663.9437853954732 405.0494726598263 586.474582515657V0Z"/>
    <path transform="translate(5676.2,0)" d="M430.31212524697185 -18.522237550467253Q324.54991821572185 -18.522237550467253 242.0920703150332 16.98672546260059Q159.63422241434455 52.49568847566843 112.22859192080796 123.56800598092377Q64.82296142727137 194.6403234861791 64.82296142727137 300.8714672848582Q64.82296142727137 391.66265869140625 98.14863586612046 451.8192462157458Q131.47431030496955 511.97583374008536 189.28331848420203 548.7001379393041Q247.0923266634345 585.4244421385229 321.9957043491304 604.5543627925217Q396.8990820348263 623.6842834465206 479.2767175324261 631.5243713371456Q575.9746618680656 641.222315672785 633.6758459508419 650.0522393789142Q691.3770300336182 658.8821630850434 716.8203997854143 676.2443475332111Q742.2637695372105 693.6065319813788 742.2637695372105 728.1290002427995V734.4802111797035Q742.2637695372105 775.52773559466 721.606840826571 805.947257079184Q700.9499121159315 836.3667785637081 662.3604577705264 853.3982440177351Q623.7710034251213 870.4297094717622 569.1012719795108 870.4297094717622Q513.8649121150374 870.4297094717622 472.1331848204136 853.1682977285236Q430.40145752578974 835.906885985285 405.6066180486232 805.3764721676707Q380.81177857145667 774.8460583500564 375.02055908739567 734.7968017607927L98.28479492664337 744.9438806213439Q110.1694470308721 851.7545581161976 169.94947877153754 928.9542462248355Q229.72951051220298 1006.1539343334734 332.6835388317704 1048.1393377725035Q435.63756715133786 1090.1247412115335 576.0297815017402 1090.1247412115335Q680.1888378933072 1090.1247412115335 765.0017260760069 1066.1503820829093Q849.8146142587066 1042.1760229542851 910.2855896018445 995.4694506898522Q970.7565649449825 948.7628784254193 1003.0410400442779 880.6706573534757Q1035.3255151435733 812.578436281532 1035.3255151435733 724.2404821701348V0H748.2103039585054V150.3244921863079H742.9124670438468Q715.3928173854947 98.72281127795577 673.2618450950831 60.756079100072384Q631.1308728046715 22.789346922188997 571.4106884784997 2.1335546858608723Q511.6905041523278 -18.522237550467253 430.31212524697185 -18.522237550467253ZM512.265407718718 187.17123657092452Q583.2778234891593 187.17123657092452 635.457282718271 213.785040281713Q687.6367419473827 240.3988439925015 716.0302117969841 285.95503051579Q744.4236816465855 331.5112170390785 744.4236816465855 389.00946532934904V498.40180541947484Q731.5015625059605 491.03279785066843 709.1479272507131 484.27715759165585Q686.7942919954658 477.52151733264327 657.7237933371216 471.5303369127214Q628.6532946787775 465.5391564927995 595.9428204353899 460.1024462878704Q563.2323461920023 454.6657360829413 529.8343420438468 449.63240356370807Q478.5049890168011 442.1723815910518 437.2999792508781 425.3422637935728Q396.0949694849551 408.51214599609375 372.0545715354383 380.3373699951917Q348.0141735859215 352.16259399428964 348.0141735859215 309.3329504393041Q348.0141735859215 270.8123999014497 368.66223205812275 243.3542449939996Q389.310290530324 215.89609008654952 426.1974865756929 201.53366332873702Q463.0846826210618 187.17123657092452 512.265407718718 187.17123657092452Z"/>
    <path transform="translate(6787.1,0)" d="M109.59222656488419 0V1069.7781982421875H405.0494726598263V0ZM256.88310180976987 1205.2698376365006Q185.17740722745657 1205.2698376365006 137.28127502463758 1250.2918871045708Q89.38514282181859 1295.3139365726413 89.38514282181859 1361.9566273624243Q89.38514282181859 1428.8785253837705 137.28127502463758 1473.4592120293528Q185.17740722745657 1518.039898674935 256.52064542324075 1518.039898674935Q328.5367471804576 1518.039898674935 376.5100191014686 1473.5170668179967Q424.48329102247953 1428.9942349610585 424.48329102247953 1361.6077499770079Q424.48329102247953 1295.0734191797674 376.4606368160023 1250.171628408134Q328.4379826095251 1205.2698376365006 256.88310180976987 1205.2698376365006Z"/>
    <path transform="translate(7267.9,0)" d="M405.0494726598263 600.1571630835533V0H109.59222656488419V1069.7781982421875H397.8028283752501L398.8650488331914 793.9455078095198H355.8563830591738Q404.8142321817577 934.1523937992752 496.88869080133736 1012.1385675054044Q588.963149420917 1090.1247412115335 732.3468481525779 1090.1247412115335Q846.0199865810573 1090.1247412115335 929.8734832834452 1041.044833375141Q1013.7269799858332 991.9649255387485 1059.9260937534273 898.6738128680736Q1106.1252075210214 805.3827001973987 1106.1252075210214 672.4401562511921V0H810.6679614260793V618.7351721189916Q810.6679614260793 724.4985790997744 759.3329016119242 780.5869616679847Q707.9978417977691 836.6753442361951 614.5212536640465 836.6753442361951Q553.1739062517881 836.6753442361951 505.85102112032473 811.026183469221Q458.5281359888613 785.3770227022469 431.7888043243438 732.9853350799531Q405.0494726598263 680.5936474576592 405.0494726598263 600.1571630835533Z"/>
  </g>
</svg>
